<svg id="Layer_1" xmlns="http://www.w3.org/2000/svg" viewBox="0 0 648 122"><style>.st0{fill:#FFFFFF;}</style><path class="st0" d="M569.3 81h-.4c-1.5 0-2.9.9-3.5 2.2v-.1s-.1.1-.2.4v-.1 0c-.4.7-.9 1.6-1.2 2-3 4.2-7.8 7-13 7-8.7 0-16.1-7.6-16.1-16.3 0-9.4 7.4-16.4 16.1-16.4 5.6 0 10.7 2.9 13.6 7.6.3.4.4.7.5.8 0-.1-.1-.2-.1-.4.5 1.6 2 2.7 3.8 2.7h.2c2.2 0 4-1.8 4-4v-.2c0-.9-.3-1.8-.9-2.5-4.2-6.7-11.7-11.4-20.9-11.4-14.2 0-24.4 10.9-24.4 23.6 0 12.9 9.7 23.5 24.4 23.5 10.2 0 18-5.1 21.8-12.6.3-.6.5-1.2.5-1.9v-.4c-.2-1.7-2-3.5-4.2-3.5zM631.3 76.4v-.3c0-12.5-10.1-23.3-24.1-23.3-14 0-24.1 10.8-24.1 23.3 0 12.7 9.6 23.2 24.1 23.2 6.7 0 12.2-2.2 16.4-5.8V96c0 2.1 1.7 3.8 3.8 3.8 2.1 0 3.8-1.7 3.8-3.8v-.1-.1l.1-19.4zm-24 15.8c-8.5 0-15.9-7.5-15.9-16 0-9.2 7.3-16.1 15.9-16.1 8.5 0 15.9 6.9 15.9 16.1 0 8.5-7.4 16-15.9 16zM515.1 56.6c0-2.1-1.7-3.9-3.9-3.9-2.1 0-3.8 1.7-3.8 3.9v39.6c0 2.1 1.7 3.8 3.8 3.8 2.1 0 3.8-1.7 3.8-3.8v-.1-.1l.1-39.4zM494.8 74s0-.1 0 0v-.8c-.4-11.3-9-20.4-21.9-20.4s-21.5 9.1-21.9 20.4v23c0 2.1 1.7 3.8 3.8 3.8s3.8-1.7 3.8-3.8V73.9c0-7.8 6.6-14.6 14.4-14.6 7.8 0 14.4 6.9 14.4 14.6v22.2c0 2.1 1.7 3.8 3.8 3.8s3.8-1.7 3.8-3.8V74.9v-.1-.1l-.2-.7zM274.4 76.4c0-12.7-10.2-23.6-24.4-23.6s-24.4 10.9-24.4 23.6c0 12.9 9.7 23.5 24.4 23.5 6.7 0 12.4-2.2 16.6-5.9v2.5c0 2.1 1.8 3.8 3.9 3.8 2.1 0 3.8-1.7 3.9-3.8v-.1V76.7v-.3zM250 92.7c-8.7 0-16.1-7.6-16.1-16.3 0-9.4 7.4-16.4 16.1-16.4s16.1 7 16.1 16.4c0 8.7-7.5 16.3-16.1 16.3zM215.9 93.2h-2.3c-2.5 0-5-1.7-5-6.8V40.7v-.1-.2c-.1-2-1.8-3.7-3.9-3.7-2.1 0-3.8 1.6-3.9 3.7V87c0 9.4 4.8 13.5 11.9 13.5h3.2c2 0 3.6-1.6 3.6-3.6.1-2.1-1.6-3.7-3.6-3.7zM325.4 52.8c-1.8-.9-4.1-.1-5 1.7l-16.8 34.2-16.9-34.2c-.9-1.8-3.1-2.6-5-1.7s-2.6 3.1-1.7 5l20.3 40.9c.6 1.3 1.9 2.1 3.3 2.1s2.7-.8 3.3-2.1L327 57.8c1-1.8.2-4.1-1.6-5zM358.4 52.5c-14 0-24.6 10.2-24.6 23.8 0 14.1 10.7 23.8 26.1 23.8 6.8 0 12.7-1.9 17.4-5.5.5-.4 1.7-1.5 1.7-2.8 0-2.1-2.2-4.3-4.3-4.3-1.1 0-1.7.2-2.4.7-3.5 2.4-7.3 4.7-12.1 4.7-8.1 0-14.9-4.1-16.6-11.3l-.6-2.4h34.4c3 0 5-1.9 5-4.7-.1-8.6-6.6-22-24-22zM343 71.9c1.5-7.6 7.8-12.1 15.1-12.1 7.2 0 14 4.6 15.1 12.1H343zM414.6 39.2c-1.3 0-2.6-.7-3.3-2-1-1.8-.2-4.1 1.6-5l21.6-11.3c1.8-.9 4.1-.2 5 1.6 1 1.8.2 4.1-1.6 5l-21.6 11.3c-.6.2-1.2.4-1.7.4z"/><circle class="st0" cx="53.7" cy="72.6" r="4"/><path class="st0" d="M53.7 116.3c-25 0-45.2-20.3-45.2-45.2 0-18.2 10.8-34.6 27.6-41.7 1.9-.8 4 .1 4.8 1.9.8 1.9-.1 4-1.9 4.8C24.9 42 15.9 55.7 15.9 71c0 20.9 17 37.9 37.9 37.9s37.9-17 37.9-37.9c0-15.6-9.3-29.4-23.8-35.1-1.9-.8-2.8-2.9-2-4.8.8-1.9 2.9-2.8 4.8-2 17.2 6.9 28.4 23.4 28.4 42-.2 24.9-20.5 45.2-45.4 45.2z"/><path class="st0" d="M53.3 56.8c-2 0-3.7-1.6-3.7-3.7V17.3c0-2 1.6-3.7 3.7-3.7h13.5c2 0 3.7 1.6 3.7 3.7S68.8 21 66.8 21H57v32.1c0 2-1.6 3.7-3.7 3.7z"/><path class="st0" d="M53.7 95.7c-12.8 0-23.2-10.4-23.2-23.2s10.4-23.2 23.2-23.2 23.2 10.4 23.2 23.2-10.5 23.2-23.2 23.2zm0-38.9c-8.7 0-15.8 7.1-15.8 15.8S45 88.4 53.7 88.4s15.8-7.1 15.8-15.8-7.1-15.8-15.8-15.8zM158.8 102c-18.2 0-33.1-14.8-33.1-33.1s14.8-33.1 33.1-33.1c11.6 0 22.5 6.2 28.4 16.2 1.1 1.8.5 4-1.3 5.1s-4 .5-5.1-1.3c-4.6-7.7-13.1-12.6-22.1-12.6-14.1 0-25.7 11.5-25.7 25.7s11.5 25.7 25.7 25.7c10 0 19.1-5.8 23.3-14.9.9-1.9 3.1-2.7 4.9-1.8 1.9.9 2.7 3.1 1.8 4.9-5.3 11.7-17.1 19.2-29.9 19.2z"/><g><path class="st0" d="M396.6 81.7c-2 0-3.7-1.7-3.7-3.7V43.6c0-2.1 1.7-3.7 3.7-3.7s3.7 1.7 3.7 3.7V78c0 2-1.6 3.7-3.7 3.7z"/></g><g><path class="st0" d="M437.6 81.7c-2 0-3.7-1.7-3.7-3.7V43.6c0-2.1 1.7-3.7 3.7-3.7s3.7 1.7 3.7 3.7V78c0 2-1.7 3.7-3.7 3.7z"/></g><g><path class="st0" d="M417.1 102.1c-13.3 0-24.2-10.9-24.2-24.2h7.4c0 9.2 7.5 16.8 16.8 16.8 9.2 0 16.8-7.5 16.8-16.8h7.4c0 13.4-10.9 24.2-24.2 24.2z"/></g></svg>